<?xml version="1.0" encoding="UTF-8" standalone="no"?>
<!-- Generator: Adobe Illustrator 21.0.0, SVG Export Plug-In . SVG Version: 6.00 Build 0)  -->

<svg
   xmlns:dc="http://purl.org/dc/elements/1.1/"
   xmlns:cc="http://creativecommons.org/ns#"
   xmlns:rdf="http://www.w3.org/1999/02/22-rdf-syntax-ns#"
   xmlns:svg="http://www.w3.org/2000/svg"
   xmlns="http://www.w3.org/2000/svg"
   xmlns:sodipodi="http://sodipodi.sourceforge.net/DTD/sodipodi-0.dtd"
   xmlns:inkscape="http://www.inkscape.org/namespaces/inkscape"
   version="1.1"
   id="svg8"
   inkscape:version="0.92.4 (5da689c313, 2019-01-14)"
   sodipodi:docname="logo_horizontal.svg"
   x="0px"
   y="0px"
   viewBox="0 0 341.11022 95.255193"
   xml:space="preserve"
   width="341.11023"
   height="95.255196"><metadata
   id="metadata104"><rdf:RDF><cc:Work
       rdf:about=""><dc:format>image/svg+xml</dc:format><dc:type
         rdf:resource="http://purl.org/dc/dcmitype/StillImage" /></cc:Work></rdf:RDF></metadata><defs
   id="defs102">
	
	
</defs>
<style
   type="text/css"
   id="style2">
	.st0{fill:#003E59;}
	.st1{fill:#1D627F;}
	.st2{fill:#1D7AA2;}
	.st3{fill:#2D9ECE;}
	.st4{fill:#97D5EF;}
	.st5{fill:#24685D;}
	.st6{fill:#3E9183;}
	.st7{fill:#6DC1B3;}
	.st8{fill:#7CDDCD;}
	.st9{fill:#A7F9EC;}
	.st10{fill:#566021;}
	.st11{fill:#9DAA5A;}
	.st12{fill:#EBFF8C;}
	.st13{fill:#F3FFBA;}
	.st14{fill:#F9FFDD;}
	.st15{fill:#2D010D;}
	.st16{fill:#66031F;}
	.st17{fill:#FF0850;}
	.st18{enable-background:new    ;}
</style>
<sodipodi:namedview
   bordercolor="#666666"
   borderopacity="1.0"
   id="base"
   inkscape:bbox-paths="false"
   inkscape:current-layer="svg8"
   inkscape:cx="14.584652"
   inkscape:cy="41.209405"
   inkscape:document-units="mm"
   inkscape:pagecheckerboard="true"
   inkscape:pageopacity="1"
   inkscape:pageshadow="2"
   inkscape:snap-bbox="true"
   inkscape:snap-bbox-edge-midpoints="true"
   inkscape:snap-bbox-midpoints="false"
   inkscape:snap-global="true"
   inkscape:snap-object-midpoints="true"
   inkscape:window-height="715"
   inkscape:window-maximized="1"
   inkscape:window-width="1366"
   inkscape:window-x="-8"
   inkscape:window-y="-8"
   inkscape:zoom="1.1476306"
   pagecolor="#f9ffdd"
   showgrid="false">
	</sodipodi:namedview>
<g
   id="layer1"
   transform="translate(-26.086093,-198.57284)"
   inkscape:groupmode="layer"
   inkscape:label="Palette">
	
</g>
<g
   transform="matrix(0.01790242,0,0,0.01790242,-17.712654,124.57578)"
   id="g918">
		<path
   d="m 2069.5,-5141.5 c 39.7,82.2 85,164.4 136.1,249.5 -8.5,-62.4 -59.6,-153.1 -136.1,-249.5 z"
   inkscape:connector-curvature="0"
   id="path80-2" />
		<path
   inkscape:connector-curvature="0"
   d="m 2219.7,-3812 -68,-39.7 z"
   id="polygon82-0" />
		<path
   d="m 2219.7,-3812 v 2.8 l 17,11.3 c 0,0 0,-2.8 0,-5.7 z"
   inkscape:connector-curvature="0"
   id="path84-5" />
		<path
   style="fill:#7cddcd"
   d="m 2718.6,-5535.5 c 73.7,96.4 155.9,192.8 241,289.1 130.4,144.6 272.1,286.3 405.4,428 39.7,39.7 76.5,79.4 113.4,119.1 0,2.8 2.8,2.8 2.8,2.8 124.7,136.1 241,269.3 331.7,402.5 107.7,158.7 181.4,317.5 195.6,476.2 0,0 28.3,-164.4 25.5,-402.5 0,-85 -5.7,-178.6 -17,-277.8 -2.8,-36.9 -8.5,-70.9 -14.2,-107.7 -11.3,-85 -28.3,-170.1 -51,-255.1 0,-2.8 0,-2.8 0,-2.8 -45.4,-167.2 -110.6,-337.3 -209.8,-496.1 -45.4,-76.5 -99.2,-153.1 -164.4,-223.9 -612.3,-688.8 -1063,-856.1 -1063,-1255.8 0,0 -215.4,586.8 110.6,1156.6 28.2,51 59.4,99.2 93.4,147.4 z"
   class="st8"
   inkscape:connector-curvature="0"
   id="path86-9" />
		<path
   style="fill:#ff0850"
   d="m 4399.6,-4387.5 c -8.5,73.7 -17,144.6 -28.3,206.9 -76.5,479.1 -249.5,686 -425.2,841.9 -39.7,-289.1 -167.2,-635 -456.4,-1026.2 -82.2,-110.6 -178.6,-226.8 -289.1,-345.8 0,0 0,0 0,-2.8 -14.2,-11.3 -25.5,-25.5 -39.7,-39.7 -73.7,-76.5 -150.2,-155.9 -235.3,-235.3 -107.7,-99.2 -218.3,-198.4 -323.2,-303.3 -127.6,-127.6 -246.6,-263.6 -345.8,-416.7 -204.1,-320.3 -303.3,-711.5 -147.4,-1250.1 v 0 c -2.8,2.8 -549.9,737 -45.4,1805.7 2.8,2.8 5.7,11.3 5.7,11.3 0,0 -5.7,-5.7 -5.7,-8.5 -167.2,-212.6 -439.4,-453.6 -646.3,-541.4 235.3,521.6 2.8,997.8 -161.6,1267.1 -170.1,277.8 -266.5,603.8 -266.5,952.5 0,93.5 5.7,184.3 19.8,272.1 8.5,65.2 22.7,127.6 36.9,189.9 31.2,113.4 70.9,221.1 119.1,323.2 31.2,65.2 65.2,130.4 104.9,192.8 8.5,11.3 14.2,22.7 22.7,34 218.3,328.8 538.6,584 915.6,717.2 138.9,48.2 289.1,82.2 442.2,96.4 56.7,5.7 113.4,8.5 170.1,8.5 99.2,0 195.6,-8.5 289.1,-22.7 -255.1,-110.6 -476.2,-283.5 -646.3,-496.1 229.6,158.7 507.4,252.3 805.1,252.3 345.8,0 663.3,-124.7 909.9,-331.7 0,-2.8 2.8,-5.7 5.7,-8.5 -212.6,121.9 -462.1,187.1 -728.5,175.8 -697.3,-34 -1255.8,-603.8 -1275.6,-1301.1 -5.7,-147.4 17,-292 56.7,-428 l -17,-11.3 -79.4,-42.5 c -25.5,-17 -25.5,-53.9 0,-68 l 195.6,-127.6 374.2,-241 c 25.5,-17 62.4,2.8 59.5,36.9 l -34,674.7 c 0,31.2 -34,48.2 -59.5,34 l -96.4,-56.7 c -25.5,90.7 -39.7,184.3 -39.7,280.6 0,581.1 470.6,1051.7 1051.7,1051.7 470.6,0 867.4,-306.1 1000.7,-731.4 11.3,-34 65.2,-184.3 79.4,-402.5 16.9,-263.7 -25.6,-623.7 -272.3,-986.6 z"
   class="st17"
   inkscape:connector-curvature="0"
   id="path88-2" />
	</g><g
   id="g97"
   transform="translate(-18.289782,0.00336981)">
		<g
   style="enable-background:new"
   id="g49"
   class="st18">
			<path
   inkscape:connector-curvature="0"
   id="path31"
   d="m 122.6,28.7 h 6.6 l 11.5,31.6 h -7.5 l -2.4,-7.1 H 121 l -2.4,7.1 H 111 Z m 7,19.5 -3.7,-11.2 -3.8,11.2 z" />
			<path
   inkscape:connector-curvature="0"
   id="path33"
   d="M 143.8,60.3 V 28.7 H 158 c 1.5,0 2.9,0.3 4.1,0.9 1.3,0.6 2.4,1.4 3.3,2.4 0.9,1 1.6,2.2 2.2,3.4 0.5,1.3 0.8,2.6 0.8,3.9 0,1 -0.1,1.9 -0.4,2.8 -0.2,0.9 -0.6,1.8 -1,2.6 -0.4,0.8 -1,1.5 -1.6,2.2 -0.6,0.6 -1.4,1.2 -2.2,1.6 l 6.9,11.7 h -8.2 L 155.8,50 H 151 v 10.2 h -7.2 z m 7.3,-16.5 h 6.7 c 0.9,0 1.6,-0.4 2.2,-1.2 0.6,-0.8 0.9,-1.9 0.9,-3.1 0,-1.3 -0.4,-2.3 -1.1,-3.1 -0.7,-0.8 -1.5,-1.2 -2.3,-1.2 H 151 v 8.6 z" />
			<path
   inkscape:connector-curvature="0"
   id="path35"
   d="M 173.6,60.3 V 28.7 h 7.3 v 13.6 l 11.6,-13.6 h 8.2 l -11.8,14.1 12.6,17.5 h -8.3 L 184.3,47.6 181,51 v 9.3 z" />
			<path
   inkscape:connector-curvature="0"
   id="path37"
   d="m 212.4,28.7 h 6.6 l 11.5,31.6 H 223 l -2.4,-7.1 h -9.8 l -2.4,7.1 h -7.5 z m 7,19.5 -3.7,-11.2 -3.8,11.2 z" />
			<path
   inkscape:connector-curvature="0"
   id="path39"
   d="m 235.5,28.7 7.4,22.4 7.3,-22.4 h 7.7 l -12,31.6 h -6.1 L 227.7,28.7 Z" />
			<path
   inkscape:connector-curvature="0"
   id="path41"
   d="M 260.9,60.3 V 28.7 h 7.3 v 31.6 z" />
			<path
   inkscape:connector-curvature="0"
   id="path43"
   d="M 274.3,60.3 V 28.7 h 11.8 c 2.6,0 4.9,0.4 6.9,1.2 2,0.8 3.6,2 4.9,3.4 1.3,1.4 2.3,3.1 3,5 0.7,1.9 1,4 1,6.1 0,2.4 -0.4,4.6 -1.1,6.5 -0.7,1.9 -1.8,3.6 -3.2,5 -1.4,1.4 -3,2.4 -5,3.2 -2,0.8 -4.1,1.1 -6.5,1.1 h -11.8 z m 20.1,-15.8 c 0,-1.4 -0.2,-2.7 -0.6,-3.8 -0.4,-1.1 -0.9,-2.1 -1.6,-3 -0.7,-0.8 -1.6,-1.5 -2.6,-1.9 -1,-0.4 -2.2,-0.7 -3.5,-0.7 h -4.5 v 18.8 h 4.5 c 1.3,0 2.5,-0.2 3.6,-0.7 1,-0.5 1.9,-1.1 2.6,-2 0.7,-0.8 1.2,-1.8 1.6,-3 0.3,-1.1 0.5,-2.3 0.5,-3.7 z" />
			<path
   inkscape:connector-curvature="0"
   id="path45"
   d="M 306.1,60.3 V 28.7 h 7.3 v 31.6 z" />
			<path
   inkscape:connector-curvature="0"
   id="path47"
   d="m 328.1,28.7 h 6.6 l 11.5,31.6 h -7.5 l -2.4,-7.1 h -9.8 l -2.4,7.1 h -7.5 z m 7,19.5 -3.7,-11.2 -3.8,11.2 z" />
		</g>
		<g
   style="enable-background:new"
   id="g95"
   class="st18">
			<path
   inkscape:connector-curvature="0"
   id="path51"
   d="M 97.8,85.4 V 71.5 h 2.2 v 13.8 h -2.2 z" />
			<path
   inkscape:connector-curvature="0"
   id="path53"
   d="m 105.3,75.6 v 9.7 h -2.2 V 71.5 h 1.7 l 7.9,10 v -10 h 2.2 v 13.8 h -1.8 z" />
			<path
   inkscape:connector-curvature="0"
   id="path55"
   d="M 118.1,85.4 V 71.5 h 9.2 v 1.9 h -7 v 4.1 h 5.9 v 1.8 h -5.9 v 6 h -2.2 z" />
			<path
   inkscape:connector-curvature="0"
   id="path57"
   d="m 134.8,85.5 c -1,0 -1.9,-0.2 -2.7,-0.6 -0.8,-0.4 -1.5,-0.9 -2.1,-1.6 -0.6,-0.7 -1,-1.4 -1.4,-2.3 -0.3,-0.8 -0.5,-1.7 -0.5,-2.6 0,-0.9 0.2,-1.8 0.5,-2.7 0.3,-0.8 0.8,-1.6 1.4,-2.2 0.6,-0.6 1.3,-1.2 2.1,-1.5 0.8,-0.4 1.7,-0.6 2.7,-0.6 1,0 1.9,0.2 2.7,0.6 0.8,0.4 1.5,0.9 2.1,1.6 0.6,0.7 1,1.4 1.3,2.3 0.3,0.8 0.5,1.7 0.5,2.6 0,0.9 -0.2,1.8 -0.5,2.7 -0.3,0.8 -0.8,1.6 -1.4,2.2 -0.6,0.6 -1.3,1.2 -2.1,1.5 -0.8,0.3 -1.6,0.6 -2.6,0.6 z m -4.4,-7.1 c 0,0.7 0.1,1.3 0.3,1.9 0.2,0.6 0.5,1.2 0.9,1.6 0.4,0.5 0.8,0.8 1.4,1.1 0.6,0.3 1.2,0.4 1.8,0.4 0.7,0 1.3,-0.1 1.9,-0.4 0.5,-0.3 1,-0.7 1.4,-1.2 0.4,-0.5 0.7,-1 0.9,-1.6 0.2,-0.6 0.3,-1.2 0.3,-1.8 0,-0.7 -0.1,-1.3 -0.3,-1.9 -0.2,-0.6 -0.5,-1.1 -0.9,-1.6 -0.4,-0.5 -0.8,-0.8 -1.4,-1.1 -0.5,-0.3 -1.1,-0.4 -1.8,-0.4 -0.7,0 -1.3,0.1 -1.9,0.4 -0.6,0.3 -1,0.7 -1.4,1.1 -0.4,0.5 -0.7,1 -0.9,1.6 -0.2,0.7 -0.3,1.3 -0.3,1.9 z" />
			<path
   inkscape:connector-curvature="0"
   id="path59"
   d="M 143.7,85.4 V 71.5 h 6 c 0.6,0 1.2,0.1 1.7,0.4 0.5,0.3 1,0.6 1.4,1 0.4,0.4 0.7,0.9 0.9,1.4 0.2,0.5 0.3,1.1 0.3,1.6 0,0.5 -0.1,0.9 -0.2,1.3 -0.1,0.4 -0.3,0.8 -0.5,1.2 -0.2,0.4 -0.5,0.7 -0.9,0.9 -0.3,0.3 -0.7,0.5 -1.1,0.6 l 3.3,5.3 h -2.5 l -3,-4.8 h -3.2 v 4.8 h -2.2 z m 2.2,-6.8 h 3.8 c 0.3,0 0.6,-0.1 0.8,-0.2 0.2,-0.1 0.5,-0.3 0.7,-0.6 0.2,-0.2 0.3,-0.5 0.4,-0.8 0.1,-0.3 0.2,-0.6 0.2,-1 0,-0.4 -0.1,-0.7 -0.2,-1 -0.1,-0.3 -0.3,-0.6 -0.5,-0.8 -0.2,-0.2 -0.4,-0.4 -0.7,-0.6 -0.3,-0.1 -0.5,-0.2 -0.8,-0.2 h -3.7 z" />
			<path
   inkscape:connector-curvature="0"
   id="path61"
   d="m 168.2,85.4 v -10 l -4.1,7.5 h -1.2 l -4.1,-7.5 v 10 h -2.2 V 71.5 h 2.3 l 4.6,8.5 4.6,-8.5 h 2.3 v 13.8 h -2.2 z" />
			<path
   inkscape:connector-curvature="0"
   id="path63"
   d="m 177.6,71.5 h 1.9 l 5.5,13.8 h -2.3 l -1.5,-3.8 h -5.3 l -1.4,3.8 h -2.3 z m 3.2,8.5 -2.2,-5.9 -2.3,5.9 z" />
			<path
   inkscape:connector-curvature="0"
   id="path65"
   d="m 195.5,73.4 h -4.6 v 11.9 h -2.2 V 73.4 h -4.6 v -1.9 h 11.4 z" />
			<path
   inkscape:connector-curvature="0"
   id="path67"
   d="M 197.4,85.4 V 71.5 h 2.2 v 13.8 h -2.2 z" />
			<path
   inkscape:connector-curvature="0"
   id="path69"
   d="m 201.8,78.3 c 0,-0.8 0.1,-1.7 0.4,-2.5 0.3,-0.8 0.7,-1.6 1.3,-2.2 0.6,-0.7 1.3,-1.2 2.1,-1.6 0.8,-0.4 1.8,-0.6 2.8,-0.6 1.3,0 2.3,0.3 3.2,0.8 0.9,0.6 1.6,1.3 2,2.2 l -1.7,1.2 c -0.2,-0.4 -0.4,-0.8 -0.7,-1.1 -0.3,-0.3 -0.6,-0.5 -0.9,-0.7 -0.3,-0.2 -0.7,-0.3 -1,-0.4 -0.4,-0.1 -0.7,-0.1 -1,-0.1 -0.7,0 -1.4,0.1 -1.9,0.4 -0.5,0.3 -1,0.7 -1.4,1.2 -0.4,0.5 -0.7,1 -0.8,1.6 -0.2,0.6 -0.3,1.2 -0.3,1.8 0,0.7 0.1,1.3 0.3,1.9 0.2,0.6 0.5,1.2 0.9,1.6 0.4,0.5 0.9,0.8 1.4,1.1 0.5,0.3 1.1,0.4 1.8,0.4 0.3,0 0.7,0 1,-0.1 0.4,-0.1 0.7,-0.2 1,-0.4 0.3,-0.2 0.6,-0.4 0.9,-0.7 0.3,-0.3 0.5,-0.6 0.7,-1 l 1.8,1 c -0.2,0.5 -0.5,1 -0.9,1.4 -0.4,0.4 -0.9,0.7 -1.4,1 -0.5,0.3 -1,0.5 -1.6,0.6 -0.6,0.1 -1.1,0.2 -1.7,0.2 -1,0 -1.9,-0.2 -2.7,-0.6 -0.8,-0.4 -1.5,-1 -2.1,-1.6 -0.6,-0.7 -1,-1.4 -1.4,-2.3 0.1,-0.7 -0.1,-1.6 -0.1,-2.5 z" />
			<path
   inkscape:connector-curvature="0"
   id="path71"
   d="m 224.2,74.8 c -0.1,-0.1 -0.3,-0.3 -0.6,-0.5 -0.2,-0.2 -0.5,-0.3 -0.9,-0.5 -0.4,-0.2 -0.7,-0.3 -1.1,-0.4 -0.4,-0.1 -0.8,-0.1 -1.2,-0.1 -0.9,0 -1.6,0.2 -2,0.5 -0.4,0.3 -0.7,0.8 -0.7,1.4 0,0.3 0.1,0.6 0.2,0.8 0.1,0.2 0.3,0.4 0.6,0.6 0.3,0.2 0.6,0.3 1.1,0.4 0.4,0.1 0.9,0.3 1.5,0.4 0.7,0.2 1.3,0.4 1.9,0.6 0.6,0.2 1,0.5 1.4,0.8 0.4,0.3 0.7,0.7 0.9,1.1 0.2,0.4 0.3,1 0.3,1.6 0,0.7 -0.1,1.3 -0.4,1.8 -0.3,0.5 -0.6,0.9 -1.1,1.2 -0.5,0.3 -1,0.6 -1.6,0.7 -0.6,0.1 -1.3,0.2 -2,0.2 -1.1,0 -2.1,-0.2 -3.1,-0.5 -1,-0.3 -1.9,-0.8 -2.7,-1.4 l 1,-1.9 c 0.2,0.2 0.4,0.4 0.7,0.6 0.3,0.2 0.7,0.4 1.1,0.6 0.4,0.2 0.9,0.3 1.4,0.4 0.5,0.1 1,0.2 1.5,0.2 0.9,0 1.5,-0.1 2,-0.4 0.5,-0.3 0.7,-0.7 0.7,-1.3 0,-0.4 -0.1,-0.6 -0.3,-0.9 -0.2,-0.2 -0.4,-0.4 -0.8,-0.6 -0.3,-0.2 -0.7,-0.3 -1.2,-0.5 -0.5,-0.1 -1,-0.3 -1.6,-0.4 -0.7,-0.2 -1.3,-0.4 -1.8,-0.6 -0.5,-0.2 -0.9,-0.4 -1.3,-0.7 -0.3,-0.3 -0.6,-0.6 -0.8,-1 -0.2,-0.4 -0.3,-0.8 -0.3,-1.4 0,-0.7 0.1,-1.3 0.4,-1.8 0.3,-0.5 0.6,-1 1.1,-1.3 0.4,-0.4 1,-0.6 1.6,-0.8 0.6,-0.2 1.3,-0.3 2,-0.3 0.9,0 1.8,0.2 2.6,0.4 0.8,0.3 1.5,0.7 2.1,1.1 z" />
			<path
   inkscape:connector-curvature="0"
   id="path73"
   d="m 241.9,85.4 -1.3,-1.3 c -0.6,0.5 -1.2,0.9 -1.9,1.1 -0.7,0.3 -1.4,0.4 -2.1,0.4 -0.7,0 -1.3,-0.1 -1.9,-0.3 -0.6,-0.2 -1,-0.5 -1.4,-0.8 -0.4,-0.4 -0.7,-0.8 -0.9,-1.3 -0.2,-0.5 -0.3,-1 -0.3,-1.6 0,-0.4 0.1,-0.9 0.2,-1.2 0.1,-0.4 0.3,-0.7 0.6,-1.1 0.2,-0.3 0.5,-0.6 0.8,-0.9 0.3,-0.3 0.6,-0.5 1,-0.8 -0.3,-0.3 -0.5,-0.6 -0.8,-0.9 -0.3,-0.3 -0.4,-0.5 -0.5,-0.8 -0.1,-0.2 -0.2,-0.5 -0.3,-0.7 C 233,75 233,74.7 233,74.5 c 0,-0.5 0.1,-0.9 0.3,-1.3 0.2,-0.4 0.4,-0.7 0.8,-1 0.3,-0.3 0.7,-0.5 1.2,-0.7 0.5,-0.2 0.9,-0.2 1.5,-0.2 0.5,0 0.9,0.1 1.3,0.2 0.4,0.1 0.8,0.3 1.1,0.6 0.3,0.3 0.6,0.6 0.8,0.9 0.2,0.4 0.3,0.8 0.3,1.3 0,0.4 -0.1,0.7 -0.2,1.1 -0.1,0.3 -0.3,0.6 -0.6,0.9 -0.2,0.3 -0.5,0.6 -0.8,0.8 -0.3,0.3 -0.7,0.5 -1,0.8 l 3.1,3.3 c 0.2,-0.5 0.4,-0.9 0.5,-1.5 0.1,-0.5 0.2,-1.1 0.2,-1.7 h 1.8 c 0,0.9 -0.1,1.7 -0.3,2.4 -0.2,0.7 -0.5,1.4 -0.9,2 l 2.8,2.9 h -3 z m -5.1,-1.5 c 0.5,0 0.9,-0.1 1.4,-0.3 0.4,-0.2 0.9,-0.4 1.2,-0.8 L 235.8,79 c -0.5,0.4 -1,0.8 -1.3,1.2 -0.3,0.4 -0.5,0.9 -0.5,1.4 0,0.3 0.1,0.6 0.2,0.9 0.1,0.3 0.3,0.5 0.6,0.7 0.3,0.2 0.5,0.3 0.9,0.5 0.4,0.2 0.7,0.2 1.1,0.2 z m -1.9,-9.4 c 0,0.1 0,0.3 0.1,0.4 0,0.1 0.1,0.3 0.2,0.4 0.1,0.1 0.2,0.3 0.4,0.5 0.2,0.2 0.4,0.4 0.7,0.7 0.6,-0.4 1.1,-0.7 1.4,-1.1 0.3,-0.3 0.5,-0.7 0.5,-1.1 0,-0.4 -0.1,-0.8 -0.4,-1 -0.3,-0.3 -0.7,-0.4 -1.1,-0.4 -0.5,0 -0.9,0.2 -1.2,0.5 -0.3,0.3 -0.6,0.7 -0.6,1.1 z" />
			<path
   inkscape:connector-curvature="0"
   id="path75"
   d="M 251.1,85.4 V 71.5 h 2.2 v 13.8 h -2.2 z" />
			<path
   inkscape:connector-curvature="0"
   id="path77"
   d="M 266.6,73.4 H 262 v 11.9 h -2.2 V 73.4 h -4.6 v -1.9 h 11.4 z" />
			<path
   inkscape:connector-curvature="0"
   id="path79"
   d="M 272.7,85.4 V 71.5 h 9.2 v 1.9 h -7 v 4.1 h 5.9 v 1.8 h -5.9 v 6 h -2.2 z" />
			<path
   inkscape:connector-curvature="0"
   id="path81"
   d="m 293.5,83.4 v 1.9 H 284 V 71.5 h 9.3 v 1.9 h -7.1 v 3.9 h 6.2 v 1.8 h -6.2 v 4.2 h 7.3 z" />
			<path
   inkscape:connector-curvature="0"
   id="path83"
   d="m 303.7,74.8 c -0.1,-0.1 -0.3,-0.3 -0.6,-0.5 -0.2,-0.2 -0.5,-0.3 -0.9,-0.5 -0.3,-0.1 -0.7,-0.3 -1.1,-0.4 -0.4,-0.1 -0.8,-0.1 -1.2,-0.1 -0.9,0 -1.6,0.2 -2,0.5 -0.4,0.3 -0.7,0.8 -0.7,1.4 0,0.3 0.1,0.6 0.2,0.8 0.1,0.2 0.3,0.4 0.6,0.6 0.3,0.2 0.6,0.3 1.1,0.4 0.4,0.1 0.9,0.3 1.5,0.4 0.7,0.2 1.3,0.4 1.9,0.6 0.6,0.2 1,0.5 1.4,0.8 0.4,0.3 0.7,0.7 0.9,1.1 0.2,0.4 0.3,1 0.3,1.6 0,0.7 -0.1,1.3 -0.4,1.8 -0.3,0.5 -0.6,0.9 -1.1,1.2 -0.5,0.3 -1,0.6 -1.6,0.7 -0.6,0.1 -1.3,0.2 -2,0.2 -1.1,0 -2.1,-0.2 -3.1,-0.5 -1,-0.3 -1.9,-0.8 -2.7,-1.4 l 1,-1.9 c 0.2,0.2 0.4,0.4 0.7,0.6 0.3,0.2 0.7,0.4 1.1,0.6 0.4,0.2 0.9,0.3 1.4,0.4 0.5,0.1 1,0.2 1.5,0.2 0.9,0 1.5,-0.1 2,-0.4 0.5,-0.3 0.7,-0.7 0.7,-1.3 0,-0.4 -0.1,-0.6 -0.3,-0.9 -0.2,-0.3 -0.4,-0.4 -0.8,-0.6 -0.3,-0.2 -0.7,-0.3 -1.2,-0.5 -0.5,-0.2 -1,-0.3 -1.6,-0.4 -0.7,-0.2 -1.3,-0.4 -1.8,-0.6 -0.5,-0.2 -0.9,-0.4 -1.3,-0.7 -0.4,-0.3 -0.6,-0.6 -0.8,-1 -0.2,-0.4 -0.3,-0.8 -0.3,-1.4 0,-0.7 0.1,-1.3 0.4,-1.8 0.3,-0.5 0.6,-1 1.1,-1.3 0.4,-0.4 1,-0.6 1.6,-0.8 0.6,-0.2 1.3,-0.3 2,-0.3 0.9,0 1.8,0.2 2.6,0.4 0.8,0.2 1.5,0.7 2.1,1.1 z" />
			<path
   inkscape:connector-curvature="0"
   id="path85"
   d="m 317.4,73.4 h -4.6 v 11.9 h -2.2 V 73.4 H 306 v -1.9 h 11.4 z" />
			<path
   inkscape:connector-curvature="0"
   id="path87"
   d="M 319.3,85.4 V 71.5 h 2.2 v 13.8 h -2.2 z" />
			<path
   inkscape:connector-curvature="0"
   id="path89"
   d="m 325.5,71.5 4.2,11.1 4.2,-11.1 h 2.3 l -5.5,13.8 h -1.9 l -5.6,-13.8 z" />
			<path
   inkscape:connector-curvature="0"
   id="path91"
   d="m 340.7,71.5 h 1.9 l 5.5,13.8 h -2.3 l -1.5,-3.8 H 339 l -1.4,3.8 h -2.3 z m 3.2,8.5 -2.2,-5.9 -2.3,5.9 z" />
			<path
   inkscape:connector-curvature="0"
   id="path93"
   d="M 349.8,85.4 V 71.5 h 2.2 v 11.9 h 7.4 v 1.9 h -9.6 z" />
		</g>
	</g>
</svg>